<svg width="24" height="24" viewBox="0 0 24 24" fill="none" xmlns="http://www.w3.org/2000/svg">
<path fill-rule="evenodd" clip-rule="evenodd" d="M21.5837 12.4126C19.6471 15.8904 15.9743 18.0509 12.0007 18.0509C8.02449 18.0509 4.35178 15.8904 2.41509 12.4126C2.26594 12.1426 2.26594 11.8571 2.41509 11.5873C4.35178 8.10957 8.02449 5.94938 12.0007 5.94938C15.9743 5.94938 19.647 8.10957 21.5837 11.5873C21.7355 11.8571 21.7355 12.1426 21.5837 12.4126ZM22.8209 10.8978C20.6347 6.97121 16.4888 4.53226 12.0007 4.53226C7.51008 4.53226 3.36413 6.97121 1.17797 10.8978C0.787031 11.5984 0.787031 12.4016 1.17797 13.1017C3.36413 17.0282 7.51008 19.4677 12.0007 19.4677C16.4888 19.4677 20.6347 17.0282 22.8209 13.1017C23.2118 12.4016 23.2118 11.5984 22.8209 10.8978ZM12.0007 14.9069C13.603 14.9069 14.907 13.6029 14.907 11.9999C14.907 10.3968 13.603 9.09282 12.0007 9.09282C10.3958 9.09282 9.09183 10.3968 9.09183 11.9999C9.09183 13.6029 10.3958 14.9069 12.0007 14.9069ZM12.0007 7.67569C9.61392 7.67569 7.6747 9.61571 7.6747 11.9999C7.6747 14.3846 9.61397 16.3239 12.0007 16.3239C14.3849 16.3239 16.3241 14.3846 16.3241 11.9999C16.3241 9.61571 14.3849 7.67569 12.0007 7.67569Z" fill="#4F4F4F"></path>
</svg>
